<?xml version="1.0" encoding="UTF-8"?>
<svg width="35px" height="35px" viewBox="0 0 35 35" version="1.1" xmlns="http://www.w3.org/2000/svg" xmlns:xlink="http://www.w3.org/1999/xlink">
    <title>avatar</title>
    <defs>
        <path d="M17.5,0.0911842105 C7.83472603,0.0911842105 0,7.82296053 0,17.3613816 L0,17.3613816 C0,26.8984211 7.83472603,34.6306579 17.5,34.6306579 L17.5,34.6306579 C27.1245205,34.6306579 34.9343151,26.9638158 35,17.4820395 L35,17.4820395 L35,17.2402632" id="path-1"></path>
        <path d="M17.5,0.0911842105 C7.83472603,0.0911842105 0,7.82296053 0,17.3613816 L0,17.3613816 C0,26.8984211 7.83472603,34.6306579 17.5,34.6306579 L17.5,34.6306579 C27.1245205,34.6306579 34.9343151,26.9638158 35,17.4820395 L35,17.4820395 L35,17.2402632" id="path-3"></path>
    </defs>
    <g id="Internal-system" stroke="none" stroke-width="1" fill="none" fill-rule="evenodd">
        <g id="avatar">
            <path d="M17.5001918,0.0912302632 C27.1649863,0.0912302632 35.0001918,7.82300658 35.0001918,17.3609671 C35.0001918,26.8984671 27.1649863,34.6307039 17.5001918,34.6307039 C7.83491781,34.6307039 0.000191780822,26.8984671 0.000191780822,17.3609671 C0.000191780822,7.82300658 7.83491781,0.0912302632 17.5001918,0.0912302632" id="Fill-1" fill="#C7DCF2"></path>
            <g id="Group-6">
                <mask id="mask-2" fill="white">
                    <use xlink:href="#path-1"></use>
                </mask>
                <g id="Clip-5"></g>
                <path d="M17.3381849,20.9828684 C21.2438014,20.9828684 24.4105822,17.2885263 24.4105822,12.7316184 C24.4105822,8.17471053 23.3701712,4.48036842 17.3381849,4.48036842 C11.3057192,4.48036842 10.2648288,8.17471053 10.2648288,12.7316184 C10.2648288,17.2885263 13.432089,20.9828684 17.3381849,20.9828684" id="Fill-4" fill="#31669B" mask="url(#mask-2)"></path>
            </g>
            <g id="Group-9">
                <mask id="mask-4" fill="white">
                    <use xlink:href="#path-3"></use>
                </mask>
                <g id="Clip-8"></g>
                <path d="M30.6799452,33.2482039 C30.5485753,25.3101118 29.4702877,23.0480066 21.2098082,21.6162303 C21.2098082,21.6162303 20.047137,23.0392566 17.337274,23.0392566 C14.6278904,23.0392566 13.4647397,21.6162303 13.4647397,21.6162303 C5.29487671,23.0323487 4.14946575,25.2608355 3.99939726,32.9912303 C3.98645205,33.6226118 3.98069863,33.6557697 3.97926027,33.5820855 L3.97926027,34.4160987 C3.97926027,34.4160987 5.94453425,38.2237303 17.3358356,38.2237303 C28.7276164,38.2237303 30.6928904,34.4160987 30.6928904,34.4160987 L30.6928904,33.7989934 C30.6785068,33.6157039 30.6741918,33.4319539 30.6799452,33.2482039" id="Fill-7" fill="#31669B" mask="url(#mask-4)"></path>
            </g>
        </g>
    </g>
</svg>