<?xml version="1.0" encoding="UTF-8"?>
<svg width="24px" height="24px" viewBox="0 0 24 24" version="1.1" xmlns="http://www.w3.org/2000/svg" xmlns:xlink="http://www.w3.org/1999/xlink">
    <title>Incoming_icon</title>
    <g id="Internal-system" stroke="none" stroke-width="1" fill="none" fill-rule="evenodd">
        <g id="Incoming_icon">
            <rect id="Rectangle" fill="#FFFFFF" opacity="0" x="0" y="0" width="24" height="24"></rect>
            <path d="M5.12314578,13 L5.12314578,16.0196863 C5.12314578,16.9919979 5.89112506,17.7830449 6.83508318,17.7830449 L6.83508318,17.7830449 L17.1650294,17.7830449 C18.1089875,17.7830449 18.8768542,16.9919979 18.8768542,16.0196863 L18.8768542,16.0196863 L18.8768542,13 L22,13 L22,16.0196863 C22,18.7659099 19.8310581,21 17.1650294,21 L17.1650294,21 L6.83508318,21 C4.16905452,21 2,18.7659099 2,16.0196863 L2,16.0196863 L2,13 L5.12314578,13 Z M13.5682256,3.04096634 L13.5682256,10.0406495 L16.5255093,10.0406495 L12.0348193,14.9119366 L7.54412924,10.0406495 L10.5014129,10.0406495 L10.5014129,3.04096634 L13.5682256,3.04096634 Z" id="Combined-Shape" fill="#707070"></path>
        </g>
    </g>
</svg>