<?xml version="1.0" encoding="UTF-8"?>
<svg width="24px" height="24px" viewBox="0 0 24 24" version="1.1" xmlns="http://www.w3.org/2000/svg" xmlns:xlink="http://www.w3.org/1999/xlink">
    <title>security_icon</title>
    <g id="Internal-system" stroke="none" stroke-width="1" fill="none" fill-rule="evenodd">
        <g id="security_icon">
            <polygon id="Path" points="0 0 24 0 24 24 0 24"></polygon>
            <path d="M12,1 L3,5 L3,11 C3,16.55 6.84,21.74 12,23 C17.16,21.74 21,16.55 21,11 L21,5 L12,1 Z M19,11 C19,15.52 16.02,19.69 12,20.93 C7.98,19.69 5,15.52 5,11 L5,6.3 L12,3.19 L19,6.3 L19,11 Z M7.41,11.59 L6,13 L10,17 L18,9 L16.59,7.58 L10,14.17 L7.41,11.59 Z" id="Shape" fill="#707070" fill-rule="nonzero"></path>
        </g>
    </g>
</svg>